# xmcd
#
# Track frame offsets: 
#        150
#        12080
#        25497
#        37725
#        50442
#        63237
#        82467
#        99405
#        112785
#        128040
#        137645
#        149862
#        162322
#        183547
#        194095
#        206712
#        218922
#        235222
#
# Disc length: 3317 seconds
#
# Revision: 5
# Processed by: cddbd v1.5.2PL0 Copyright (c) Steve Scherf et al.
# Submitted via: ExactAudioCopyFreeDBPlugin 1.0
#
DISCID=0b0cf312
DTITLE=Various Artist - Originals 2
DYEAR=1994
DGENRE=Blues
TTITLE0=The Drifters - Up On the Roof
TTITLE1=Marvin Gaye and Kim Weston - It Takes Two
TTITLE2=Otis Redding - (Sittin' On) the Dock of the Bay
TTITLE3=Dobie Gray - The 'In' Crowd
TTITLE4=Los Lobos - La Bamba
TTITLE5=Free - All Right Now
TTITLE6=Curtis Mayfield - Move On Up
TTITLE7=Jackie Wilson - I Get the Sweetest Feeling
TTITLE8=Jimi Hendrix - Hey Joe
TTITLE9=James Brown - Papa's Got a Brand New Bag
TTITLE10=No Chuck Berry - Particular Place to Go
TTITLE11=Martha Reeves and The Vandellas - (Love is Like a) Heatwave
TTITLE12=Gladys Knight and The Pips - Midnight Train to Georgia
TTITLE13=Creedence Clearwater Revival - Bad Moon Rising
TTITLE14=Canned Heat - Let's Work Together
TTITLE15=Dion - The Wanderer
TTITLE16=Nina Simone - My Baby Just Cares for Me
TTITLE17=John Lee Hooker - Stella Mae
EXTD=
EXTT0=
EXTT1=
EXTT2=
EXTT3=
EXTT4=
EXTT5=
EXTT6=
EXTT7=
EXTT8=
EXTT9=
EXTT10=
EXTT11=
EXTT12=
EXTT13=
EXTT14=
EXTT15=
EXTT16=
EXTT17=
PLAYORDER=
